<svg xmlns="http://www.w3.org/2000/svg" viewBox="0 0 24 24">
  <path fill="#1565C0" d="M5,3H19A2,2 0 0,1 21,5V19A2,2 0 0,1 19,21H5A2,2 0 0,1 3,19V5A2,2 0 0,1 5,3M5,5V19H19V5H5M8,8A1,1 0 0,1 9,9A1,1 0 0,1 8,10A1,1 0 0,1 7,9A1,1 0 0,1 8,8M16,8A1,1 0 0,1 17,9A1,1 0 0,1 16,10A1,1 0 0,1 15,9A1,1 0 0,1 16,8M12,11A1,1 0 0,1 13,12A1,1 0 0,1 12,13A1,1 0 0,1 11,12A1,1 0 0,1 12,11M8,14A1,1 0 0,1 9,15A1,1 0 0,1 8,16A1,1 0 0,1 7,15A1,1 0 0,1 8,14M16,14A1,1 0 0,1 17,15A1,1 0 0,1 16,16A1,1 0 0,1 15,15A1,1 0 0,1 16,14Z"/>
</svg>
